<mxfile host="Electron" modified="2023-06-18T20:06:27.701Z" agent="Mozilla/5.0 (Windows NT 10.0; Win64; x64) AppleWebKit/537.36 (KHTML, like Gecko) draw.io/21.4.0 Chrome/112.0.5615.204 Electron/24.5.1 Safari/537.36" etag="CWXx4kk5XiXZwSSamAfO" version="21.4.0" type="device">
  <diagram name="Страница 1" id="13BjA1V9MazMI_zsnju2">
    <mxGraphModel dx="1295" dy="818" grid="1" gridSize="10" guides="1" tooltips="1" connect="1" arrows="1" fold="1" page="1" pageScale="1" pageWidth="827" pageHeight="1169" math="0" shadow="0">
      <root>
        <mxCell id="0" />
        <mxCell id="1" parent="0" />
        <mxCell id="pdcvQMXg-KLp-SFLU1od-35" value="" style="rounded=0;whiteSpace=wrap;html=1;dashed=1;dashPattern=8 8;fillColor=default;strokeColor=#ada4a4;" vertex="1" parent="1">
          <mxGeometry x="72.5" y="600" width="437.5" height="200" as="geometry" />
        </mxCell>
        <mxCell id="pdcvQMXg-KLp-SFLU1od-34" value="" style="rounded=0;whiteSpace=wrap;html=1;dashed=1;dashPattern=8 8;fillColor=default;strokeColor=#ada4a4;" vertex="1" parent="1">
          <mxGeometry x="70" y="280" width="720" height="230" as="geometry" />
        </mxCell>
        <mxCell id="pdcvQMXg-KLp-SFLU1od-5" style="edgeStyle=orthogonalEdgeStyle;rounded=0;orthogonalLoop=1;jettySize=auto;html=1;exitX=0.5;exitY=1;exitDx=0;exitDy=0;entryX=0.5;entryY=0;entryDx=0;entryDy=0;" edge="1" parent="1" source="pdcvQMXg-KLp-SFLU1od-1" target="pdcvQMXg-KLp-SFLU1od-3">
          <mxGeometry relative="1" as="geometry" />
        </mxCell>
        <mxCell id="pdcvQMXg-KLp-SFLU1od-1" value="Start" style="rounded=1;whiteSpace=wrap;html=1;" vertex="1" parent="1">
          <mxGeometry x="140" y="30" width="120" height="60" as="geometry" />
        </mxCell>
        <mxCell id="pdcvQMXg-KLp-SFLU1od-7" style="edgeStyle=orthogonalEdgeStyle;rounded=0;orthogonalLoop=1;jettySize=auto;html=1;exitX=0.5;exitY=1;exitDx=0;exitDy=0;entryX=0.5;entryY=0;entryDx=0;entryDy=0;" edge="1" parent="1" source="pdcvQMXg-KLp-SFLU1od-3" target="pdcvQMXg-KLp-SFLU1od-6">
          <mxGeometry relative="1" as="geometry" />
        </mxCell>
        <mxCell id="pdcvQMXg-KLp-SFLU1od-3" value="string[] originArr;&lt;br&gt;targetStrLength = 3;" style="rounded=0;whiteSpace=wrap;html=1;" vertex="1" parent="1">
          <mxGeometry x="140" y="120" width="120" height="60" as="geometry" />
        </mxCell>
        <mxCell id="pdcvQMXg-KLp-SFLU1od-10" style="edgeStyle=orthogonalEdgeStyle;rounded=0;orthogonalLoop=1;jettySize=auto;html=1;exitX=0.5;exitY=1;exitDx=0;exitDy=0;entryX=0.5;entryY=0;entryDx=0;entryDy=0;" edge="1" parent="1" source="pdcvQMXg-KLp-SFLU1od-6" target="pdcvQMXg-KLp-SFLU1od-9">
          <mxGeometry relative="1" as="geometry" />
        </mxCell>
        <mxCell id="pdcvQMXg-KLp-SFLU1od-6" value="strCount = 0;&lt;br&gt;string[] tempArr = new string[originArrLength];" style="rounded=0;whiteSpace=wrap;html=1;" vertex="1" parent="1">
          <mxGeometry x="72.5" y="210" width="255" height="60" as="geometry" />
        </mxCell>
        <mxCell id="pdcvQMXg-KLp-SFLU1od-23" style="edgeStyle=orthogonalEdgeStyle;rounded=0;orthogonalLoop=1;jettySize=auto;html=1;exitX=0.5;exitY=1;exitDx=0;exitDy=0;entryX=0.5;entryY=0;entryDx=0;entryDy=0;" edge="1" parent="1" source="pdcvQMXg-KLp-SFLU1od-9" target="pdcvQMXg-KLp-SFLU1od-11">
          <mxGeometry relative="1" as="geometry">
            <Array as="points">
              <mxPoint x="200" y="340" />
            </Array>
          </mxGeometry>
        </mxCell>
        <mxCell id="pdcvQMXg-KLp-SFLU1od-9" value="i = 0;" style="rounded=0;whiteSpace=wrap;html=1;" vertex="1" parent="1">
          <mxGeometry x="140" y="300" width="120" height="40" as="geometry" />
        </mxCell>
        <mxCell id="pdcvQMXg-KLp-SFLU1od-24" style="edgeStyle=orthogonalEdgeStyle;rounded=0;orthogonalLoop=1;jettySize=auto;html=1;entryX=0;entryY=0.5;entryDx=0;entryDy=0;" edge="1" parent="1" source="pdcvQMXg-KLp-SFLU1od-11" target="pdcvQMXg-KLp-SFLU1od-13">
          <mxGeometry relative="1" as="geometry" />
        </mxCell>
        <mxCell id="pdcvQMXg-KLp-SFLU1od-32" style="edgeStyle=orthogonalEdgeStyle;rounded=0;orthogonalLoop=1;jettySize=auto;html=1;exitX=0.5;exitY=1;exitDx=0;exitDy=0;entryX=0.5;entryY=0;entryDx=0;entryDy=0;" edge="1" parent="1" source="pdcvQMXg-KLp-SFLU1od-11" target="pdcvQMXg-KLp-SFLU1od-31">
          <mxGeometry relative="1" as="geometry" />
        </mxCell>
        <mxCell id="pdcvQMXg-KLp-SFLU1od-11" value="i &amp;lt; originArr.length" style="rhombus;whiteSpace=wrap;html=1;" vertex="1" parent="1">
          <mxGeometry x="100" y="390" width="200" height="80" as="geometry" />
        </mxCell>
        <mxCell id="pdcvQMXg-KLp-SFLU1od-16" style="edgeStyle=orthogonalEdgeStyle;rounded=0;orthogonalLoop=1;jettySize=auto;html=1;exitX=1;exitY=0.5;exitDx=0;exitDy=0;entryX=0;entryY=0.5;entryDx=0;entryDy=0;" edge="1" parent="1" source="pdcvQMXg-KLp-SFLU1od-13" target="pdcvQMXg-KLp-SFLU1od-15">
          <mxGeometry relative="1" as="geometry" />
        </mxCell>
        <mxCell id="pdcvQMXg-KLp-SFLU1od-27" style="edgeStyle=orthogonalEdgeStyle;rounded=0;orthogonalLoop=1;jettySize=auto;html=1;" edge="1" parent="1" source="pdcvQMXg-KLp-SFLU1od-13">
          <mxGeometry relative="1" as="geometry">
            <mxPoint x="650" y="360" as="targetPoint" />
            <Array as="points">
              <mxPoint x="422" y="490" />
              <mxPoint x="770" y="490" />
              <mxPoint x="770" y="360" />
            </Array>
          </mxGeometry>
        </mxCell>
        <mxCell id="pdcvQMXg-KLp-SFLU1od-13" value="originArr[i].length &amp;lt;=targetStrLength" style="rhombus;whiteSpace=wrap;html=1;" vertex="1" parent="1">
          <mxGeometry x="327.5" y="390" width="190" height="80" as="geometry" />
        </mxCell>
        <mxCell id="pdcvQMXg-KLp-SFLU1od-25" style="edgeStyle=orthogonalEdgeStyle;rounded=0;orthogonalLoop=1;jettySize=auto;html=1;exitX=0.5;exitY=0;exitDx=0;exitDy=0;" edge="1" parent="1" source="pdcvQMXg-KLp-SFLU1od-15">
          <mxGeometry relative="1" as="geometry">
            <mxPoint x="200" y="360" as="targetPoint" />
            <Array as="points">
              <mxPoint x="652" y="360" />
            </Array>
          </mxGeometry>
        </mxCell>
        <mxCell id="pdcvQMXg-KLp-SFLU1od-15" value="srtCount++;&lt;br&gt;tempArr[strCount -1] = originArr[i];&lt;br&gt;i++;" style="rounded=0;whiteSpace=wrap;html=1;" vertex="1" parent="1">
          <mxGeometry x="557.5" y="400" width="190" height="60" as="geometry" />
        </mxCell>
        <mxCell id="pdcvQMXg-KLp-SFLU1od-17" value="Yes" style="text;html=1;strokeColor=none;fillColor=none;align=center;verticalAlign=middle;whiteSpace=wrap;rounded=0;" vertex="1" parent="1">
          <mxGeometry x="280" y="390" width="60" height="30" as="geometry" />
        </mxCell>
        <mxCell id="pdcvQMXg-KLp-SFLU1od-19" value="Yes" style="text;html=1;strokeColor=none;fillColor=none;align=center;verticalAlign=middle;whiteSpace=wrap;rounded=0;" vertex="1" parent="1">
          <mxGeometry x="497.5" y="390" width="60" height="30" as="geometry" />
        </mxCell>
        <mxCell id="pdcvQMXg-KLp-SFLU1od-26" value="" style="endArrow=classic;html=1;rounded=0;exitX=0.5;exitY=0;exitDx=0;exitDy=0;" edge="1" parent="1" source="pdcvQMXg-KLp-SFLU1od-15">
          <mxGeometry width="50" height="50" relative="1" as="geometry">
            <mxPoint x="330" y="530" as="sourcePoint" />
            <mxPoint x="653" y="370" as="targetPoint" />
          </mxGeometry>
        </mxCell>
        <mxCell id="pdcvQMXg-KLp-SFLU1od-30" value="No" style="text;html=1;strokeColor=none;fillColor=none;align=center;verticalAlign=middle;whiteSpace=wrap;rounded=0;" vertex="1" parent="1">
          <mxGeometry x="190" y="480" width="60" height="30" as="geometry" />
        </mxCell>
        <mxCell id="pdcvQMXg-KLp-SFLU1od-39" style="edgeStyle=orthogonalEdgeStyle;rounded=0;orthogonalLoop=1;jettySize=auto;html=1;exitX=0.5;exitY=1;exitDx=0;exitDy=0;entryX=0.5;entryY=0;entryDx=0;entryDy=0;" edge="1" parent="1" source="pdcvQMXg-KLp-SFLU1od-31" target="pdcvQMXg-KLp-SFLU1od-36">
          <mxGeometry relative="1" as="geometry" />
        </mxCell>
        <mxCell id="pdcvQMXg-KLp-SFLU1od-31" value="string[] newArr = new string[strCount];" style="rounded=0;whiteSpace=wrap;html=1;" vertex="1" parent="1">
          <mxGeometry x="72.5" y="530" width="255" height="60" as="geometry" />
        </mxCell>
        <mxCell id="pdcvQMXg-KLp-SFLU1od-33" value="No" style="text;html=1;strokeColor=none;fillColor=none;align=center;verticalAlign=middle;whiteSpace=wrap;rounded=0;" vertex="1" parent="1">
          <mxGeometry x="430" y="460" width="60" height="30" as="geometry" />
        </mxCell>
        <mxCell id="pdcvQMXg-KLp-SFLU1od-41" style="edgeStyle=orthogonalEdgeStyle;rounded=0;orthogonalLoop=1;jettySize=auto;html=1;exitX=0.5;exitY=1;exitDx=0;exitDy=0;entryX=0.5;entryY=0;entryDx=0;entryDy=0;" edge="1" parent="1" source="pdcvQMXg-KLp-SFLU1od-36" target="pdcvQMXg-KLp-SFLU1od-40">
          <mxGeometry relative="1" as="geometry" />
        </mxCell>
        <mxCell id="pdcvQMXg-KLp-SFLU1od-36" value="i = 0;" style="rounded=0;whiteSpace=wrap;html=1;" vertex="1" parent="1">
          <mxGeometry x="140" y="620" width="120" height="40" as="geometry" />
        </mxCell>
        <mxCell id="pdcvQMXg-KLp-SFLU1od-45" style="edgeStyle=orthogonalEdgeStyle;rounded=0;orthogonalLoop=1;jettySize=auto;html=1;exitX=1;exitY=0.5;exitDx=0;exitDy=0;entryX=0;entryY=0.5;entryDx=0;entryDy=0;" edge="1" parent="1" source="pdcvQMXg-KLp-SFLU1od-40" target="pdcvQMXg-KLp-SFLU1od-44">
          <mxGeometry relative="1" as="geometry" />
        </mxCell>
        <mxCell id="pdcvQMXg-KLp-SFLU1od-42" value="Yes" style="text;html=1;strokeColor=none;fillColor=none;align=center;verticalAlign=middle;whiteSpace=wrap;rounded=0;" vertex="1" parent="1">
          <mxGeometry x="290" y="700" width="60" height="30" as="geometry" />
        </mxCell>
        <mxCell id="pdcvQMXg-KLp-SFLU1od-43" value="No" style="text;html=1;strokeColor=none;fillColor=none;align=center;verticalAlign=middle;whiteSpace=wrap;rounded=0;" vertex="1" parent="1">
          <mxGeometry x="200" y="770" width="60" height="30" as="geometry" />
        </mxCell>
        <mxCell id="pdcvQMXg-KLp-SFLU1od-50" style="edgeStyle=orthogonalEdgeStyle;rounded=0;orthogonalLoop=1;jettySize=auto;html=1;exitX=0.5;exitY=0;exitDx=0;exitDy=0;" edge="1" parent="1" source="pdcvQMXg-KLp-SFLU1od-44">
          <mxGeometry relative="1" as="geometry">
            <mxPoint x="200" y="670" as="targetPoint" />
            <Array as="points">
              <mxPoint x="414" y="670" />
            </Array>
          </mxGeometry>
        </mxCell>
        <mxCell id="pdcvQMXg-KLp-SFLU1od-44" value="newArr[i] = tempArr[i];&lt;br&gt;i++;" style="rounded=0;whiteSpace=wrap;html=1;" vertex="1" parent="1">
          <mxGeometry x="354" y="705" width="136" height="50" as="geometry" />
        </mxCell>
        <mxCell id="pdcvQMXg-KLp-SFLU1od-56" style="edgeStyle=orthogonalEdgeStyle;rounded=0;orthogonalLoop=1;jettySize=auto;html=1;entryX=0.5;entryY=0;entryDx=0;entryDy=0;" edge="1" parent="1" source="pdcvQMXg-KLp-SFLU1od-53" target="pdcvQMXg-KLp-SFLU1od-55">
          <mxGeometry relative="1" as="geometry" />
        </mxCell>
        <mxCell id="pdcvQMXg-KLp-SFLU1od-53" value="newArr[];" style="shape=document;whiteSpace=wrap;html=1;boundedLbl=1;" vertex="1" parent="1">
          <mxGeometry x="140" y="820" width="120" height="80" as="geometry" />
        </mxCell>
        <mxCell id="pdcvQMXg-KLp-SFLU1od-54" style="edgeStyle=orthogonalEdgeStyle;rounded=0;orthogonalLoop=1;jettySize=auto;html=1;entryX=0.5;entryY=0;entryDx=0;entryDy=0;" edge="1" parent="1" source="pdcvQMXg-KLp-SFLU1od-40" target="pdcvQMXg-KLp-SFLU1od-53">
          <mxGeometry relative="1" as="geometry" />
        </mxCell>
        <mxCell id="pdcvQMXg-KLp-SFLU1od-40" value="i &amp;lt; newArr.length" style="rhombus;whiteSpace=wrap;html=1;" vertex="1" parent="1">
          <mxGeometry x="105" y="690" width="190" height="80" as="geometry" />
        </mxCell>
        <mxCell id="pdcvQMXg-KLp-SFLU1od-55" value="End" style="rounded=1;whiteSpace=wrap;html=1;" vertex="1" parent="1">
          <mxGeometry x="140" y="930" width="120" height="60" as="geometry" />
        </mxCell>
      </root>
    </mxGraphModel>
  </diagram>
</mxfile>
